<svg xmlns="http://www.w3.org/2000/svg" width="512" height="512" xml:space="preserve"><path fill-rule="evenodd" clip-rule="evenodd" fill="#EF7122" d="M475.758 473.124c-2.945 3.625-7.414 6.016-12.445 6.016-8.867 0-16.062-7.195-16.062-16.079 0-4.594 1.953-8.719 5.062-11.641 17.125-17.367 27.695-41.134 27.695-67.416V240c0-8.829-7.18-16-16-16h-64.009c-22.086 0-40.008-17.907-40.008-40.009v-55.986c0-53.033-42.978-96.003-95.993-96.003H127.997c-53.028 0-95.993 42.97-95.993 96.003v255.999c0 53.025 42.965 95.995 95.993 95.995h176.001c8.828 0 16.008 7.172 16.008 16 0 8.845-7.18 16.001-16.008 16.001H127.997C57.301 512 0 454.701 0 384.004v-256C0 57.299 57.301 0 127.997 0h136.001c70.704 0 128.001 57.299 128.001 128.004v48.001c0 8.829 7.156 15.985 16 15.985h64.009c22.086 0 39.992 17.922 39.992 40.009v152.005c0 34.696-13.836 66.072-36.242 89.12zM144.001 191.99c-8.844 0-16.004-7.156-16.004-15.985 0-8.844 7.16-16 16.004-16h95.993c8.848 0 16.004 7.156 16.004 16 0 8.829-7.156 15.985-16.004 15.985h-95.993zm-16.004 144.005c0-8.829 7.16-15.985 16.004-15.985h191.99c8.844 0 16 7.156 16 15.985 0 8.844-7.156 16-16 16h-191.99c-8.844 0-16.004-7.156-16.004-16zm240.002 144.004c8.844 0 16 7.172 16 16 0 8.845-7.156 16.001-16 16.001-8.828 0-16.008-7.156-16.008-16.001 0-8.828 7.18-16 16.008-16z"/></svg>